HIERARCHY
ROOT hip
{
  OFFSET 0.0 0.0 0.0
  CHANNELS 6 Xposition Yposition Zposition Zrotation Yrotation Xrotation
  JOINT abdomen
  {
    OFFSET 0.0 20.6881 -0.73152
    CHANNELS 3 Zrotation Xrotation Yrotation
    JOINT chest
    {
      OFFSET 0.0 11.7043 -0.48768
      CHANNELS 3 Zrotation Xrotation Yrotation
      JOINT neck
      {
        OFFSET 0.0 22.1894 -2.19456
        CHANNELS 3 Zrotation Xrotation Yrotation
        JOINT head
        {
          OFFSET -0.24384 7.07133 1.2192
          CHANNELS 3 Zrotation Xrotation Yrotation
          JOINT leftEye
          {
            OFFSET 4.14528 8.04674 8.04672
            CHANNELS 3 Zrotation Xrotation Yrotation
            End Site
            {
              OFFSET 1.0 0.0 0.0
            }
          }
          JOINT rightEye
          {
            OFFSET -3.6576 8.04674 8.04672
            CHANNELS 3 Zrotation Xrotation Yrotation
            End Site
            {
              OFFSET 1.0 0.0 0.0
            }
          }
        }
      }
      JOINT rCollar
      {
        OFFSET -2.68224 19.2634 -4.8768
        CHANNELS 3 Zrotation Xrotation Yrotation
        JOINT rShldr
        {
          OFFSET -8.77824 -1.95073 1.46304
          CHANNELS 3 Zrotation Xrotation Yrotation
          JOINT rForeArm
          {
            OFFSET -28.1742 -1.7115 0.48768
            CHANNELS 3 Zrotation Xrotation Yrotation
            JOINT rHand
            {
              OFFSET -22.5879 0.773209 7.07136
              CHANNELS 3 Zrotation Xrotation Yrotation
              JOINT rThumb1
              {
                OFFSET -1.2192 -0.487915 3.41376
                CHANNELS 3 Zrotation Xrotation Yrotation
                JOINT rThumb2
                {
                  OFFSET -3.37035 -0.52449 3.41376
                  CHANNELS 3 Zrotation Xrotation Yrotation
                  End Site
                  {
                    OFFSET -1.78271 -1.18214 1.43049
                  }
                }
              }
              JOINT rIndex1
              {
                OFFSET -7.75947 0.938293 5.60832
                CHANNELS 3 Zrotation Xrotation Yrotation
                JOINT rIndex2
                {
                  OFFSET -2.54057 -0.884171 1.56538
                  CHANNELS 3 Zrotation Xrotation Yrotation
                  End Site
                  {
                    OFFSET -1.62519 -0.234802 1.16502
                  }
                }
              }
              JOINT rMid1
              {
                OFFSET -8.24714 1.18213 3.41376
                CHANNELS 3 Zrotation Xrotation Yrotation
                JOINT rMid2
                {
                  OFFSET -3.10165 -0.590103 1.0647
                  CHANNELS 3 Zrotation Xrotation Yrotation
                  End Site
                  {
                    OFFSET -2.48547 -0.328903 0.83742
                  }
                }
              }
              JOINT rRing1
              {
                OFFSET -8.82822 0.546677 1.51678
                CHANNELS 3 Zrotation Xrotation Yrotation
                JOINT rRing2
                {
                  OFFSET -2.60934 -0.819778 -0.0198488
                  CHANNELS 3 Zrotation Xrotation Yrotation
                  End Site
                  {
                    OFFSET -2.33842 -0.294052 0.168128
                  }
                }
              }
              JOINT rPinky1
              {
                OFFSET -8.27202 -0.0477905 -0.4584
                CHANNELS 3 Zrotation Xrotation Yrotation
                JOINT rPinky2
                {
                  OFFSET -1.82734 -0.647385 -0.700984
                  CHANNELS 3 Zrotation Xrotation Yrotation
                  End Site
                  {
                    OFFSET -1.69225 -0.51767 -0.607171
                  }
                }
              }
            }
          }
        }
      }
      JOINT lCollar
      {
        OFFSET 2.68224 19.2634 -4.8768
        CHANNELS 3 Zrotation Xrotation Yrotation
        JOINT lShldr
        {
          OFFSET 8.77824 -1.95073 1.46304
          CHANNELS 3 Zrotation Xrotation Yrotation
          JOINT lForeArm
          {
            OFFSET 28.1742 -1.7115 0.48768
            CHANNELS 3 Zrotation Xrotation Yrotation
            JOINT lHand
            {
              OFFSET 22.5879 0.773209 7.07136
              CHANNELS 3 Zrotation Xrotation Yrotation
              JOINT lThumb1
              {
                OFFSET 1.2192 -0.487915 3.41376
                CHANNELS 3 Zrotation Xrotation Yrotation
                JOINT lThumb2
                {
                  OFFSET 3.37035 -0.52449 3.41376
                  CHANNELS 3 Zrotation Xrotation Yrotation
                  End Site
                  {
                    OFFSET 1.78271 -1.18214 1.43049
                  }
                }
              }
              JOINT lIndex1
              {
                OFFSET 7.75947 0.938293 5.60832
                CHANNELS 3 Zrotation Xrotation Yrotation
                JOINT lIndex2
                {
                  OFFSET 2.54057 -0.884171 1.56538
                  CHANNELS 3 Zrotation Xrotation Yrotation
                  End Site
                  {
                    OFFSET 1.62519 -0.234802 1.16502
                  }
                }
              }
              JOINT lMid1
              {
                OFFSET 8.24714 1.18213 3.41376
                CHANNELS 3 Zrotation Xrotation Yrotation
                JOINT lMid2
                {
                  OFFSET 3.10165 -0.590103 1.0647
                  CHANNELS 3 Zrotation Xrotation Yrotation
                  End Site
                  {
                    OFFSET 2.48547 -0.328903 0.83742
                  }
                }
              }
              JOINT lRing1
              {
                OFFSET 8.82822 0.546677 1.51678
                CHANNELS 3 Zrotation Xrotation Yrotation
                JOINT lRing2
                {
                  OFFSET 2.60934 -0.819778 -0.0198488
                  CHANNELS 3 Zrotation Xrotation Yrotation
                  End Site
                  {
                    OFFSET 2.33842 -0.294052 0.168128
                  }
                }
              }
              JOINT lPinky1
              {
                OFFSET 8.27202 -0.0477905 -0.4584
                CHANNELS 3 Zrotation Xrotation Yrotation
                JOINT lPinky2
                {
                  OFFSET 1.82734 -0.647385 -0.700984
                  CHANNELS 3 Zrotation Xrotation Yrotation
                  End Site
                  {
                    OFFSET 1.69225 -0.51767 -0.607171
                  }
                }
              }
            }
          }
        }
      }
    }
  }
  JOINT rButtock
  {
    OFFSET -8.77824 4.35084 1.2192
    CHANNELS 3 Zrotation Xrotation Yrotation
    JOINT rThigh
    {
      OFFSET 0.0 -1.70687 -2.19456
      CHANNELS 3 Zrotation Xrotation Yrotation
      JOINT rShin
      {
        OFFSET 0.0 -36.8199 0.73152
        CHANNELS 3 Zrotation Xrotation Yrotation
        JOINT rFoot
        {
          OFFSET 0.73152 -45.1104 -5.12064
          CHANNELS 3 Zrotation Xrotation Yrotation
          End Site
          {
            OFFSET -1.1221 -3.69964 12.103
          }
        }
      }
    }
  }
  JOINT lButtock
  {
    OFFSET 8.77824 4.35084 1.2192
    CHANNELS 3 Zrotation Xrotation Yrotation
    JOINT lThigh
    {
      OFFSET 0.0 -1.70687 -2.19456
      CHANNELS 3 Zrotation Xrotation Yrotation
      JOINT lShin
      {
        OFFSET 0.0 -36.8199 0.73152
        CHANNELS 3 Zrotation Xrotation Yrotation
        JOINT lFoot
        {
          OFFSET -0.73152 -45.1104 -5.12064
          CHANNELS 3 Zrotation Xrotation Yrotation
          End Site
          {
            OFFSET 1.1221 -3.69964 12.103
          }
        }
      }
    }
  }
}
MOTION
Frames: 8
Frame Time: 0.00833333
173.781 57.1011 -22.3191 145.61 -88.063 -133.779 -1.7897 40.9375 -2.22922 -1.50385 -10.3388 -1.18702 3.09354 11.1879 1.11805 -0.414976 -53.7444 0.630729 -0.0 0.0 0.0 -0.0 0.0 0.0 -1.80436e-14 4.32917e-13 4.91992e-15 71.6749 27.7429 16.4086 -19.7291 -12.6748 38.0262 -0.0962143 -8.81289 -1.24853 4.80855e-10 5.49361e-10 -3.06962e-10 8.34738e-10 9.48384e-10 -5.29344e-10 4.80869e-10 5.49362e-10 -3.06987e-10 7.73091 5.47488 0.417314 4.80859e-10 5.49355e-10 -3.06962e-10 2.90554 0.965183 0.102902 4.80864e-10 5.49355e-10 -3.06959e-10 10.2786 0.731801 0.0259123 4.8085e-10 5.49357e-10 -3.06952e-10 2.22167 -0.733487 -0.20892 -1.81363e-14 4.32915e-13 4.62174e-15 -68.1205 24.8326 -12.4954 19.2567 -12.1048 -36.9047 1.12012 -28.5935 4.39343 -2.94197e-10 4.65587e-10 4.79618e-10 -5.20832e-10 7.9968e-10 8.24221e-10 -2.94202e-10 4.65586e-10 4.79628e-10 -7.73091 5.47488 -0.417314 -2.94198e-10 4.65588e-10 4.79621e-10 -2.90554 0.965183 -0.102902 -2.94206e-10 4.65587e-10 4.7962e-10 -10.2786 0.731801 -0.0259123 -2.94191e-10 4.65591e-10 4.79615e-10 -2.22167 -0.733487 0.20892 -2.03217e-16 0.0 -3.88251e-19 -27.4957 -78.5835 -26.823 -4.52072 79.1332 5.08893 -2.50505 -12.4673 -6.94491 2.03217e-16 0.0 3.88251e-19 -10.9347 -53.2897 -7.71934 2.82472 75.7752 -4.22885 7.14636 -27.2199 13.8298
173.019 57.148 -22.3466 142.996 -88.1124 -131.139 -1.641 40.9079 -2.33949 -1.47563 -10.3507 -1.1936 3.09924 11.1835 1.10598 -0.425534 -53.839 0.588035 -0.0 0.0 0.0 -0.0 0.0 0.0 -2.50196e-14 8.76805e-13 1.4573e-14 71.6645 27.7527 16.3676 -19.755 -12.7068 38.0884 -0.0970412 -8.8504 -1.25393 2.89009e-10 -1.88054e-10 -1.7272e-11 4.98566e-10 -3.27664e-10 -2.90841e-11 2.89024e-10 -1.88053e-10 -1.72975e-11 7.73091 5.47488 0.417314 2.89014e-10 -1.8806e-10 -1.72735e-11 2.90554 0.965183 0.102902 2.89019e-10 -1.8806e-10 -1.72714e-11 10.2786 0.731801 0.0259123 2.89004e-10 -1.88058e-10 -1.72646e-11 2.22167 -0.733487 -0.20892 -2.51208e-14 8.76803e-13 1.42845e-14 -68.1238 24.9097 -12.5642 19.2949 -12.1501 -36.9945 1.12422 -28.6404 4.402 8.20541e-12 2.97448e-11 1.09446e-10 1.25732e-11 5.04466e-11 1.90322e-10 8.19958e-12 2.97434e-11 1.09455e-10 -7.73091 5.47488 -0.417314 8.20426e-12 2.97447e-11 1.09449e-10 -2.90554 0.965183 -0.102902 8.1963e-12 2.97442e-11 1.09447e-10 -10.2786 0.731801 -0.0259123 8.21029e-12 2.97476e-11 1.0944e-10 -2.22167 -0.733487 0.20892 -2.03217e-16 0.0 -3.88251e-19 -27.6275 -78.8176 -27.0202 -3.44509 76.4923 4.00256 -2.59837 -12.4021 -7.20712 2.03217e-16 0.0 3.88251e-19 -10.6434 -52.6905 -7.26398 2.83975 75.8858 -4.27742 7.26632 -27.4733 13.9727
172.272 57.2007 -22.3834 139.972 -88.158 -128.073 -1.50337 40.8677 -2.44139 -1.43907 -10.3599 -1.19931 3.10655 11.1734 1.09405 -0.448908 -53.9527 0.536291 -0.0 0.0 0.0 -0.0 0.0 0.0 -3.95968e-14 1.56647e-12 1.69247e-14 71.6546 27.7571 16.3209 -19.7813 -12.7392 38.1516 -0.0979719 -8.89237 -1.25997 -3.12032e-11 -1.45386e-09 5.05043e-10 -6.29297e-11 -2.51814e-09 8.73367e-10 -3.11873e-11 -1.45386e-09 5.05019e-10 7.73091 5.47488 0.417314 -3.11975e-11 -1.45387e-09 5.05039e-10 2.90554 0.965183 0.102902 -3.11928e-11 -1.45386e-09 5.05041e-10 10.2786 0.731801 0.0259123 -3.12074e-11 -1.45386e-09 5.05047e-10 2.22167 -0.733487 -0.20892 -3.97084e-14 1.56647e-12 1.66669e-14 -68.127 24.9933 -12.6351 19.3397 -12.2033 -37.1 1.12875 -28.692 4.41145 5.33246e-10 -7.93312e-10 -6.16262e-10 9.40472e-10 -1.36587e-09 -1.05435e-09 5.33239e-10 -7.93314e-10 -6.16255e-10 -7.73091 5.47488 -0.417314 5.33245e-10 -7.93313e-10 -6.1626e-10 -2.90554 0.965183 -0.102902 5.33237e-10 -7.93313e-10 -6.16264e-10 -10.2786 0.731801 -0.0259123 5.3325e-10 -7.9331e-10 -6.16272e-10 -2.22167 -0.733487 0.20892 -2.03217e-16 0.0 -3.88251e-19 -27.6373 -78.9728 -27.0802 -2.70826 73.7524 3.25061 -2.67364 -12.2686 -7.44231 2.03217e-16 0.0 3.88251e-19 -10.3486 -52.1289 -6.78787 2.8567 75.9956 -4.32365 7.36024 -27.6741 14.0939
171.54 57.2554 -22.4275 136.518 -88.1914 -124.563 -1.37718 40.8288 -2.53021 -1.39306 -10.3643 -1.2034 3.11193 11.1737 1.08014 -0.470051 -54.0915 0.48068 -0.0 0.0 0.0 -0.0 0.0 0.0 -5.47765e-14 2.24209e-12 1.57463e-14 71.6419 27.7576 16.2737 -19.8054 -12.769 38.2096 -0.0988909 -8.93351 -1.2659 -3.24735e-10 -2.65493e-09 1.00782e-09 -5.77951e-10 -4.59662e-09 1.74224e-09 -3.24719e-10 -2.65493e-09 1.0078e-09 7.73091 5.47488 0.417314 -3.24729e-10 -2.65493e-09 1.00782e-09 2.90554 0.965183 0.102902 -3.24724e-10 -2.65493e-09 1.00782e-09 10.2786 0.731801 0.0259123 -3.24738e-10 -2.65493e-09 1.00783e-09 2.22167 -0.733487 -0.20892 -5.48926e-14 2.24209e-12 1.55238e-14 -68.131 25.0813 -12.7056 19.3889 -12.2621 -37.2164 1.1336 -28.747 4.42153 1.03864e-09 -1.59231e-09 -1.32688e-09 1.83381e-09 -2.741e-09 -2.27342e-09 1.03863e-09 -1.59231e-09 -1.32687e-09 -7.73091 5.47488 -0.417314 1.03864e-09 -1.59231e-09 -1.32687e-09 -2.90554 0.965183 -0.102902 1.03863e-09 -1.59231e-09 -1.32688e-09 -10.2786 0.731801 -0.0259123 1.03864e-09 -1.59231e-09 -1.32689e-09 -2.22167 -0.733487 0.20892 -2.03217e-16 0.0 -3.88251e-19 -27.4117 -79.0553 -26.8652 -2.18095 70.9661 2.7039 -2.73149 -12.0713 -7.66085 2.03217e-16 0.0 3.88251e-19 -10.0393 -51.5954 -6.29974 2.87808 76.1119 -4.3694 7.41842 -27.8381 14.1664
170.822 57.3086 -22.4806 132.766 -88.2136 -120.747 -1.26267 40.8025 -2.60135 -1.33649 -10.3615 -1.20516 3.11187 11.2001 1.06213 -0.473894 -54.2616 0.426405 -0.0 0.0 0.0 -0.0 0.0 0.0 -6.35597e-14 2.64383e-12 1.48095e-14 71.623 27.7559 16.2314 -19.8248 -12.7931 38.2565 -0.0996784 -8.96852 -1.27094 -4.36541e-10 -3.19814e-09 1.23892e-09 -7.74696e-10 -5.53665e-09 2.14177e-09 -4.36525e-10 -3.19814e-09 1.2389e-09 7.73091 5.47488 0.417314 -4.36535e-10 -3.19814e-09 1.23891e-09 2.90554 0.965183 0.102902 -4.36529e-10 -3.19814e-09 1.23891e-09 10.2786 0.731801 0.0259123 -4.36543e-10 -3.19814e-09 1.23892e-09 2.22167 -0.733487 -0.20892 -6.36667e-14 2.64383e-12 1.46107e-14 -68.1369 25.1717 -12.7732 19.4408 -12.3243 -37.339 1.13864 -28.804 4.432 1.2821e-09 -1.95598e-09 -1.65176e-09 2.26354e-09 -3.36664e-09 -2.83052e-09 1.28209e-09 -1.95598e-09 -1.65176e-09 -7.73091 5.47488 -0.417314 1.2821e-09 -1.95598e-09 -1.65176e-09 -2.90554 0.965183 -0.102902 1.28209e-09 -1.95598e-09 -1.65177e-09 -10.2786 0.731801 -0.0259123 1.2821e-09 -1.95598e-09 -1.65178e-09 -2.22167 -0.733487 0.20892 -2.03217e-16 0.0 -3.88251e-19 -26.8424 -79.0702 -26.2424 -1.78986 68.1856 2.28909 -2.77262 -11.8148 -7.87317 2.03217e-16 0.0 3.88251e-19 -9.70433 -51.0808 -5.80831 2.90654 76.2419 -4.41667 7.43109 -27.9812 14.1635
170.114 57.3604 -22.5422 128.686 -88.2285 -116.609 -1.16562 40.7948 -2.64855 -1.26317 -10.3501 -1.20367 3.10317 11.2677 1.03995 -0.450142 -54.488 0.378631 -0.0 0.0 0.0 -0.0 0.0 0.0 -6.34828e-14 2.66008e-12 1.43432e-14 71.5919 27.7535 16.1975 -19.8396 -12.8114 38.2921 -0.100355 -8.99853 -1.27527 -2.12487e-10 -2.62233e-09 1.01028e-09 -3.8386e-10 -4.54023e-09 1.7473e-09 -2.12474e-10 -2.62233e-09 1.01026e-09 7.73091 5.47488 0.417314 -2.12483e-10 -2.62233e-09 1.01028e-09 2.90554 0.965183 0.102902 -2.12476e-10 -2.62233e-09 1.01028e-09 10.2786 0.731801 0.0259123 -2.12489e-10 -2.62233e-09 1.01028e-09 2.22167 -0.733487 -0.20892 -6.3558e-14 2.66008e-12 1.41514e-14 -68.1473 25.2631 -12.8359 19.498 -12.3934 -37.4746 1.14406 -28.8653 4.44325 1.10862e-09 -1.5863e-09 -1.32667e-09 1.95413e-09 -2.72943e-09 -2.27161e-09 1.10861e-09 -1.5863e-09 -1.32667e-09 -7.73091 5.47488 -0.417314 1.10861e-09 -1.5863e-09 -1.32668e-09 -2.90554 0.965183 -0.102902 1.10861e-09 -1.5863e-09 -1.32668e-09 -10.2786 0.731801 -0.0259123 1.10862e-09 -1.5863e-09 -1.32669e-09 -2.22167 -0.733487 0.20892 -2.03217e-16 0.0 -3.88251e-19 -25.8834 -78.9944 -25.1738 -1.48504 65.3603 1.9545 -2.79039 -11.46 -8.07577 2.03217e-16 0.0 3.88251e-19 -9.33599 -50.5906 -5.30743 2.94438 76.3902 -4.46591 7.38292 -28.0903 14.0626
169.417 57.4095 -22.6139 124.384 -88.236 -112.258 -1.08387 40.7987 -2.67603 -1.17565 -10.3315 -1.19956 3.08851 11.3642 1.01455 -0.409188 -54.7597 0.333111 -0.0 0.0 0.0 -0.0 0.0 0.0 -5.84777e-14 2.44352e-12 1.25949e-14 71.552 27.7492 16.1685 -19.8508 -12.8254 38.3192 -0.100963 -9.02551 -1.27916 2.27139e-10 -1.34484e-09 4.9667e-10 3.8399e-10 -2.32954e-09 8.60733e-10 2.27147e-10 -1.34484e-09 4.96657e-10 7.73091 5.47488 0.417314 2.27139e-10 -1.34484e-09 4.96672e-10 2.90554 0.965183 0.102902 2.27148e-10 -1.34484e-09 4.96668e-10 10.2786 0.731801 0.0259123 2.27137e-10 -1.34484e-09 4.96673e-10 2.22167 -0.733487 -0.20892 -5.85048e-14 2.44352e-12 1.24023e-14 -68.1609 25.3569 -12.8955 19.5605 -12.4691 -37.6229 1.14987 -28.9306 4.45526 6.77533e-10 -7.65398e-10 -6.04424e-10 1.1881e-09 -1.3153e-09 -1.03088e-09 6.77525e-10 -7.65398e-10 -6.04423e-10 -7.73091 5.47488 -0.417314 6.77531e-10 -7.65401e-10 -6.04425e-10 -2.90554 0.965183 -0.102902 6.77525e-10 -7.654e-10 -6.04429e-10 -10.2786 0.731801 -0.0259123 6.77536e-10 -7.65399e-10 -6.04438e-10 -2.22167 -0.733487 0.20892 -2.03217e-16 0.0 -3.88251e-19 -24.6346 -78.8284 -23.7668 -1.24464 62.4847 1.67831 -2.78545 -11.0181 -8.26527 2.03217e-16 0.0 3.88251e-19 -8.9407 -50.1267 -4.79406 2.98995 76.5519 -4.51638 7.28254 -28.1627 13.8826
168.726 57.4561 -22.6967 119.884 -88.239 -107.725 -1.00579 40.8061 -2.69485 -1.08595 -10.3082 -1.19441 3.07326 11.4655 0.985372 -0.366958 -55.0287 0.280958 -0.0 0.0 0.0 -0.0 0.0 0.0 -5.11387e-14 2.13075e-12 1.03636e-14 71.5146 27.7405 16.1389 -19.8579 -12.8341 38.3361 -0.101415 -9.04548 -1.28203 6.25754e-10 -9.02559e-11 -9.90304e-12 1.08084e-09 -1.58483e-10 -1.38931e-11 6.25759e-10 -9.02574e-11 -9.91368e-12 7.73091 5.47488 0.417314 6.25752e-10 -9.02548e-11 -9.89644e-12 2.90554 0.965183 0.102902 6.25762e-10 -9.02562e-11 -9.90286e-12 10.2786 0.731801 0.0259123 6.25753e-10 -9.0255e-11 -9.89775e-12 2.22167 -0.733487 -0.20892 -5.11169e-14 2.13075e-12 1.01671e-14 -68.1725 25.4551 -12.9552 19.6218 -12.5436 -37.7692 1.15563 -28.9953 4.46717 2.18131e-10 4.77859e-11 1.10048e-10 3.73518e-10 8.5144e-11 1.95756e-10 2.18123e-10 4.7786e-11 1.10047e-10 -7.73091 5.47488 -0.417314 2.18128e-10 4.77835e-11 1.10046e-10 -2.90554 0.965183 -0.102902 2.18122e-10 4.77845e-11 1.10043e-10 -10.2786 0.731801 -0.0259123 2.18134e-10 4.77847e-11 1.10036e-10 -2.22167 -0.733487 0.20892 -2.03217e-16 0.0 -3.88251e-19 -23.2078 -78.61 -22.1079 -1.05874 59.6775 1.45353 -2.7701 -10.5689 -8.45226 2.03217e-16 0.0 3.88251e-19 -8.52843 -49.6752 -4.28167 3.04008 76.7207 -4.56839 7.15623 -28.2296 13.6591
